<?xml version="1.0" encoding="utf-8"?>
<!-- Generator: Adobe Illustrator 16.0.0, SVG Export Plug-In . SVG Version: 6.00 Build 0)  -->
<!DOCTYPE svg PUBLIC "-//W3C//DTD SVG 1.1//EN" "http://www.w3.org/Graphics/SVG/1.1/DTD/svg11.dtd">
<svg version="1.1" id="Layer_1" xmlns="http://www.w3.org/2000/svg" xmlns:xlink="http://www.w3.org/1999/xlink" x="0px" y="0px"
	 width="101.667px" height="87px" viewBox="0 0 101.667 87" enable-background="new 0 0 101.667 87" xml:space="preserve">
<polygon fill="#235366" points="49.968,6.698 53.597,11.889 58.296,7.634 60.681,13.507 66.207,10.402 67.228,16.659 73.305,14.864 
	72.904,21.188 79.229,20.788 77.433,26.868 83.689,27.887 80.585,33.412 86.457,35.796 82.203,40.493 87.395,44.127 82.203,47.757 
	86.457,52.454 80.585,54.838 83.689,60.366 77.433,61.385 79.229,67.461 72.904,67.062 73.305,73.391 67.228,71.589 66.207,77.85 
	60.681,74.747 58.296,80.617 53.597,76.359 49.968,81.557 46.333,76.359 41.639,80.617 39.253,74.747 33.728,77.85 32.708,71.589 
	26.629,73.391 27.027,67.062 20.703,67.461 22.501,61.385 16.246,60.366 19.348,54.838 13.477,52.454 17.73,47.757 12.538,44.127 
	17.73,40.493 13.477,35.796 19.348,33.412 16.246,27.887 22.501,26.868 20.703,20.788 27.027,21.188 26.629,14.864 32.708,16.659 
	33.728,10.402 39.253,13.507 41.639,7.634 46.333,11.889 "/>
<text transform="matrix(1 0 0 1 36.688 52.3672)" fill="#FFFFFF" font-family="'Mission-Script'" font-size="33.042">sm</text>
<g>
	<path fill="none" stroke="#FFFFFF" stroke-miterlimit="10" stroke-dasharray="2,2" d="M75.973,42.84
		c0,14.364-11.644,26.006-26.005,26.006c-14.361,0-26.006-11.642-26.006-26.006c0-14.361,11.642-26.006,26.005-26.006
		C64.33,16.833,75.973,28.479,75.973,42.84z"/>
</g>
</svg>
