<?xml version="1.0" encoding="utf-8"?>
<!-- Generator: Adobe Illustrator 16.0.0, SVG Export Plug-In . SVG Version: 6.00 Build 0)  -->
<!DOCTYPE svg PUBLIC "-//W3C//DTD SVG 1.1//EN" "http://www.w3.org/Graphics/SVG/1.1/DTD/svg11.dtd">
<svg version="1.1" id="Layer_1" xmlns="http://www.w3.org/2000/svg" xmlns:xlink="http://www.w3.org/1999/xlink" x="0px" y="0px"
	 width="49.667px" height="48.811px" viewBox="0 0 49.667 48.811" enable-background="new 0 0 49.667 48.811" xml:space="preserve">
<polygon fill="#235366" points="25.091,1.958 27.365,5.209 30.306,2.545 31.798,6.221 35.257,4.278 35.896,8.193 39.699,7.071 
	39.447,11.029 43.408,10.778 42.283,14.583 46.2,15.22 44.255,18.678 47.931,20.172 45.269,23.111 48.519,25.385 45.269,27.656 
	47.931,30.597 44.255,32.089 46.2,35.546 42.283,36.186 43.408,39.99 39.447,39.741 39.699,43.699 35.896,42.573 35.257,46.49 
	31.798,44.547 30.306,48.223 27.365,45.557 25.091,48.811 22.819,45.557 19.882,48.223 18.387,44.547 14.928,46.49 14.291,42.573 
	10.486,43.699 10.736,39.741 6.778,39.99 7.903,36.186 3.987,35.546 5.93,32.089 2.255,30.597 4.918,27.656 1.667,25.385 
	4.918,23.111 2.255,20.172 5.93,18.678 3.987,15.22 7.903,14.583 6.778,10.778 10.736,11.029 10.486,7.071 14.291,8.193 
	14.928,4.278 18.387,6.221 19.882,2.545 22.819,5.209 "/>
<path fill="#FFFFFF" d="M10.429,37.258c0,0,13.851,9.234,24.528-5.482c0,0,2.813-3.822,2.524-10.027c0,0,2.813-2.525,3.246-3.247
	c0,0-2.669,0.866-3.282,0.866c0,0,1.77-1.228,2.381-3.14l-3.605,1.19c0,0-4.221-3.318-7.936-0.975c0,0-3.32,1.875-3.029,6.602
	c0,0-7.289,0.217-12.663-6.384c0,0-2.561,4.185,1.515,8.151c0,0-1.694,0.18-2.524-0.723c0,0-0.252,4.437,4.725,6.312l-2.452,0.146
	c0,0,0.649,3.176,5.446,4.258C19.303,34.805,17.319,37.511,10.429,37.258z"/>
</svg>
