<?xml version="1.0" encoding="utf-8"?>
<!-- Generator: Adobe Illustrator 16.0.0, SVG Export Plug-In . SVG Version: 6.00 Build 0)  -->
<!DOCTYPE svg PUBLIC "-//W3C//DTD SVG 1.1//EN" "http://www.w3.org/Graphics/SVG/1.1/DTD/svg11.dtd">
<svg version="1.1" id="Layer_1" xmlns="http://www.w3.org/2000/svg" xmlns:xlink="http://www.w3.org/1999/xlink" x="0px" y="0px"
	 width="49.667px" height="48.811px" viewBox="0 0 49.667 48.811" enable-background="new 0 0 49.667 48.811" xml:space="preserve">
<polygon fill="#235366" points="25.24,1 27.513,4.251 30.455,1.587 31.947,5.263 35.406,3.32 36.044,7.235 39.847,6.113 
	39.595,10.071 43.556,9.82 42.431,13.625 46.348,14.262 44.404,17.72 48.08,19.214 45.417,22.153 48.667,24.427 45.417,26.698 
	48.08,29.639 44.404,31.131 46.348,34.588 42.431,35.228 43.556,39.032 39.595,38.783 39.847,42.741 36.044,41.615 35.406,45.532 
	31.947,43.589 30.455,47.265 27.513,44.599 25.24,47.853 22.967,44.599 20.03,47.265 18.535,43.589 15.076,45.532 14.439,41.615 
	10.634,42.741 10.884,38.783 6.926,39.032 8.051,35.228 4.135,34.588 6.078,31.131 2.403,29.639 5.066,26.698 1.815,24.427 
	5.066,22.153 2.403,19.214 6.078,17.72 4.135,14.262 8.051,13.625 6.926,9.82 10.884,10.071 10.634,6.113 14.439,7.235 15.076,3.32 
	18.535,5.263 20.03,1.587 22.967,4.251 "/>
<text transform="matrix(1 0 0 1 13.519 34.802)" fill="#FFFFFF" font-family="'Helvetica-Bold'" font-size="29.3536">in</text>
</svg>
