<?xml version="1.0" encoding="utf-8"?>
<!-- Generator: Adobe Illustrator 16.0.0, SVG Export Plug-In . SVG Version: 6.00 Build 0)  -->
<!DOCTYPE svg PUBLIC "-//W3C//DTD SVG 1.1//EN" "http://www.w3.org/Graphics/SVG/1.1/DTD/svg11.dtd">
<svg version="1.1" id="Layer_1" xmlns="http://www.w3.org/2000/svg" xmlns:xlink="http://www.w3.org/1999/xlink" x="0px" y="0px"
	 width="185px" height="19.67px" viewBox="0 0 185 19.67" style="enable-background:new 0 0 185 19.67;" xml:space="preserve">
<style type="text/css">
<![CDATA[
	.st0{fill:#AA3326;}
	.st1{fill:#252524;}
]]>
</style>
<g>
	<path class="st1" d="M6.58,13.97l1.38-1.66c0.96,0.79,1.96,1.29,3.18,1.29c0.96,0,1.54-0.38,1.54-1v-0.03
		c0-0.59-0.37-0.9-2.14-1.35c-2.14-0.55-3.52-1.14-3.52-3.25V7.94c0-1.93,1.55-3.21,3.72-3.21c1.55,0,2.87,0.49,3.95,1.35
		l-1.22,1.76C12.52,7.19,11.6,6.8,10.7,6.8c-0.9,0-1.37,0.41-1.37,0.93v0.03c0,0.7,0.46,0.93,2.29,1.4C13.78,9.72,15,10.49,15,12.35
		v0.03c0,2.11-1.61,3.3-3.91,3.3C9.48,15.67,7.86,15.11,6.58,13.97z"/>
	<path class="st1" d="M22.03,11.33l-4.09-6.44h2.73l2.54,4.27l2.58-4.27h2.66l-4.09,6.4v4.24h-2.34V11.33z"/>
	<path class="st1" d="M32.11,4.88h2.34v8.51h5.3v2.13h-7.64V4.88z"/>
	<path class="st1" d="M41.46,4.88h2.58l2.78,7.49l2.78-7.49h2.52l-4.3,10.71h-2.07L41.46,4.88z"/>
	<path class="st1" d="M55.93,4.88h2.34v10.64h-2.34V4.88z"/>
	<path class="st1" d="M66.61,4.81h2.16l4.56,10.71h-2.45l-0.97-2.39h-4.5l-0.97,2.39h-2.39L66.61,4.81z M69.07,11.07l-1.41-3.45
		l-1.41,3.45H69.07z"/>
	<path class="st1" d="M83.79,4.88h2.52l2.8,4.5l2.8-4.5h2.52v10.64H92.1V8.58l-2.99,4.54h-0.06l-2.96-4.5v6.9h-2.29V4.88z"/>
	<path class="st1" d="M97.44,8.01V7.99c0-1.76,1.33-3.21,3.23-3.21c1.17,0,1.87,0.39,2.44,0.96l-0.87,1
		c-0.48-0.43-0.97-0.7-1.58-0.7c-1.04,0-1.8,0.87-1.8,1.93v0.02c0,1.06,0.73,1.95,1.8,1.95c0.71,0,1.14-0.28,1.63-0.73l0.87,0.88
		c-0.64,0.68-1.35,1.11-2.54,1.11C98.79,11.2,97.44,9.79,97.44,8.01z"/>
	<path class="st1" d="M106.18,10.23V10.2c0-3.02,2.28-5.5,5.55-5.5c2.01,0,3.21,0.67,4.19,1.64l-1.49,1.72
		c-0.82-0.75-1.66-1.2-2.72-1.2c-1.79,0-3.08,1.49-3.08,3.31v0.03c0,1.82,1.26,3.34,3.08,3.34c1.22,0,1.96-0.49,2.8-1.25l1.49,1.5
		c-1.09,1.17-2.31,1.9-4.36,1.9C108.5,15.7,106.18,13.29,106.18,10.23z"/>
	<path class="st1" d="M123.65,4.81h2.16l4.56,10.71h-2.45l-0.97-2.39h-4.5l-0.97,2.39h-2.39L123.65,4.81z M126.11,11.07l-1.41-3.45
		l-1.41,3.45H126.11z"/>
	<path class="st1" d="M133.52,10.96V4.88h2.34v6.02c0,1.73,0.87,2.63,2.29,2.63c1.43,0,2.29-0.87,2.29-2.55V4.88h2.34v6
		c0,3.22-1.81,4.8-4.66,4.8S133.52,14.09,133.52,10.96z"/>
	<path class="st1" d="M147.52,4.88h2.34v8.51h5.3v2.13h-7.64V4.88z"/>
	<path class="st1" d="M158.97,4.88h8.02v2.08h-5.7v2.16h5.01v2.08h-5.01v2.23h5.77v2.08h-8.1V4.88z"/>
	<path class="st1" d="M174.55,11.33l-4.09-6.44h2.74l2.54,4.27l2.58-4.27h2.66l-4.09,6.4v4.24h-2.34V11.33z"/>
</g>
<path class="st0" d="M103.25,13.63v1.92H97.4v-1.92H103.25z"/>
<g>
</g>
<g>
</g>
<g>
</g>
<g>
</g>
<g>
</g>
<g>
</g>
</svg>
